<?xml version="1.0" encoding="UTF-8"?>
<svg xmlns="http://www.w3.org/2000/svg" xmlns:xlink="http://www.w3.org/1999/xlink" width="327" height="206" viewBox="0 0 327 206">
<path fill="none" stroke-width="1" stroke-linecap="butt" stroke-linejoin="miter" stroke="rgb(0%, 0%, 0%)" stroke-opacity="1" stroke-miterlimit="4" d="M 103.457645 -99 C 103.457645 -89.059864 80.338409 -80.99966 51.818288 -80.99966 C 23.298166 -80.99966 0.17893 -89.059864 0.17893 -99 C 0.17893 -108.940136 23.298166 -117.00034 51.818288 -117.00034 C 80.338409 -117.00034 103.457645 -108.940136 103.457645 -99 Z M 103.457645 -99 " transform="matrix(0.997377, 0, 0, 0.997377, 3.989508, 201.74032)"/>
<path fill-rule="nonzero" fill="rgb(0%, 0%, 0%)" fill-opacity="1" d="M 30.625 107.191406 L 26.753906 97.195312 L 28.183594 97.195312 L 30.78125 104.457031 C 30.988281 105.042969 31.164062 105.585938 31.308594 106.09375 C 31.460938 105.546875 31.640625 105.003906 31.847656 104.457031 L 34.546875 97.195312 L 35.894531 97.195312 L 31.980469 107.191406 Z M 40.617188 106.300781 C 40.160156 106.691406 39.71875 106.960938 39.304688 107.117188 C 38.878906 107.277344 38.429688 107.355469 37.949219 107.355469 C 37.152344 107.355469 36.539062 107.164062 36.117188 106.773438 C 35.6875 106.390625 35.472656 105.890625 35.476562 105.28125 C 35.472656 104.933594 35.554688 104.609375 35.71875 104.3125 C 35.878906 104.019531 36.089844 103.785156 36.351562 103.609375 C 36.609375 103.433594 36.902344 103.296875 37.234375 103.203125 C 37.472656 103.144531 37.839844 103.082031 38.324219 103.019531 C 39.316406 102.902344 40.042969 102.761719 40.515625 102.59375 C 40.515625 102.429688 40.515625 102.324219 40.519531 102.273438 C 40.515625 101.78125 40.402344 101.425781 40.171875 101.21875 C 39.855469 100.941406 39.386719 100.804688 38.773438 100.800781 C 38.191406 100.804688 37.769531 100.90625 37.496094 101.105469 C 37.21875 101.3125 37.015625 101.671875 36.886719 102.183594 L 35.6875 102.019531 C 35.792969 101.507812 35.972656 101.089844 36.226562 100.773438 C 36.46875 100.460938 36.832031 100.21875 37.308594 100.046875 C 37.78125 99.878906 38.324219 99.792969 38.953125 99.789062 C 39.566406 99.792969 40.070312 99.867188 40.460938 100.007812 C 40.84375 100.15625 41.125 100.339844 41.3125 100.558594 C 41.492188 100.777344 41.621094 101.054688 41.695312 101.390625 C 41.730469 101.601562 41.75 101.980469 41.753906 102.519531 L 41.753906 104.15625 C 41.75 105.300781 41.777344 106.023438 41.832031 106.324219 C 41.886719 106.628906 41.988281 106.914062 42.144531 107.191406 L 40.859375 107.191406 C 40.734375 106.9375 40.652344 106.644531 40.617188 106.300781 Z M 40.515625 103.558594 C 40.066406 103.742188 39.394531 103.894531 38.507812 104.019531 C 38 104.09375 37.648438 104.175781 37.4375 104.265625 C 37.226562 104.359375 37.0625 104.492188 36.953125 104.667969 C 36.835938 104.84375 36.78125 105.039062 36.785156 105.246094 C 36.78125 105.578125 36.90625 105.851562 37.15625 106.066406 C 37.402344 106.289062 37.765625 106.398438 38.242188 106.394531 C 38.714844 106.398438 39.136719 106.296875 39.503906 106.085938 C 39.871094 105.882812 40.140625 105.597656 40.316406 105.234375 C 40.445312 104.960938 40.511719 104.550781 40.515625 104.007812 Z M 43.644531 107.191406 L 43.644531 99.953125 L 44.746094 99.953125 L 44.746094 101.046875 C 45.027344 100.542969 45.285156 100.203125 45.523438 100.035156 C 45.757812 99.875 46.023438 99.792969 46.316406 99.789062 C 46.726562 99.792969 47.144531 99.925781 47.574219 100.183594 L 47.152344 101.320312 C 46.847656 101.144531 46.550781 101.054688 46.253906 101.054688 C 45.984375 101.054688 45.742188 101.136719 45.527344 101.296875 C 45.3125 101.460938 45.164062 101.6875 45.074219 101.972656 C 44.9375 102.410156 44.867188 102.886719 44.871094 103.402344 L 44.871094 107.191406 Z M 48.308594 98.609375 L 48.308594 97.195312 L 49.539062 97.195312 L 49.539062 98.609375 Z M 48.308594 107.191406 L 48.308594 99.953125 L 49.539062 99.953125 L 49.539062 107.191406 Z M 56.128906 106.300781 C 55.675781 106.691406 55.234375 106.960938 54.816406 107.117188 C 54.390625 107.277344 53.945312 107.355469 53.464844 107.355469 C 52.667969 107.355469 52.054688 107.164062 51.628906 106.773438 C 51.203125 106.390625 50.988281 105.890625 50.992188 105.28125 C 50.988281 104.933594 51.070312 104.609375 51.234375 104.3125 C 51.390625 104.019531 51.601562 103.785156 51.863281 103.609375 C 52.125 103.433594 52.417969 103.296875 52.746094 103.203125 C 52.984375 103.144531 53.351562 103.082031 53.839844 103.019531 C 54.828125 102.902344 55.558594 102.761719 56.027344 102.59375 C 56.027344 102.429688 56.027344 102.324219 56.03125 102.273438 C 56.027344 101.78125 55.914062 101.425781 55.6875 101.21875 C 55.371094 100.941406 54.902344 100.804688 54.285156 100.800781 C 53.707031 100.804688 53.28125 100.90625 53.007812 101.105469 C 52.730469 101.3125 52.53125 101.671875 52.402344 102.183594 L 51.203125 102.019531 C 51.304688 101.507812 51.484375 101.089844 51.738281 100.773438 C 51.984375 100.460938 52.347656 100.21875 52.820312 100.046875 C 53.292969 99.878906 53.839844 99.792969 54.464844 99.789062 C 55.082031 99.792969 55.585938 99.867188 55.972656 100.007812 C 56.355469 100.15625 56.640625 100.339844 56.828125 100.558594 C 57.007812 100.777344 57.136719 101.054688 57.207031 101.390625 C 57.242188 101.601562 57.261719 101.980469 57.265625 102.519531 L 57.265625 104.15625 C 57.261719 105.300781 57.289062 106.023438 57.34375 106.324219 C 57.398438 106.628906 57.5 106.914062 57.65625 107.191406 L 56.375 107.191406 C 56.246094 106.9375 56.164062 106.644531 56.128906 106.300781 Z M 56.027344 103.558594 C 55.582031 103.742188 54.910156 103.894531 54.023438 104.019531 C 53.515625 104.09375 53.160156 104.175781 52.949219 104.265625 C 52.738281 104.359375 52.578125 104.492188 52.46875 104.667969 C 52.351562 104.84375 52.296875 105.039062 52.300781 105.246094 C 52.296875 105.578125 52.421875 105.851562 52.671875 106.066406 C 52.914062 106.289062 53.277344 106.398438 53.757812 106.394531 C 54.226562 106.398438 54.648438 106.296875 55.019531 106.085938 C 55.386719 105.882812 55.65625 105.597656 55.828125 105.234375 C 55.957031 104.960938 56.023438 104.550781 56.027344 104.007812 Z M 60.304688 107.191406 L 59.164062 107.191406 L 59.164062 97.195312 L 60.394531 97.195312 L 60.394531 100.765625 C 60.910156 100.117188 61.574219 99.792969 62.378906 99.789062 C 62.824219 99.792969 63.242188 99.882812 63.640625 100.058594 C 64.039062 100.242188 64.367188 100.496094 64.621094 100.8125 C 64.878906 101.140625 65.078125 101.53125 65.226562 101.992188 C 65.367188 102.449219 65.441406 102.941406 65.445312 103.464844 C 65.441406 104.703125 65.132812 105.660156 64.527344 106.339844 C 63.910156 107.015625 63.171875 107.355469 62.316406 107.355469 C 61.460938 107.355469 60.789062 107 60.304688 106.285156 Z M 60.289062 103.519531 C 60.285156 104.386719 60.402344 105.015625 60.644531 105.398438 C 61.027344 106.035156 61.554688 106.351562 62.214844 106.347656 C 62.75 106.351562 63.207031 106.117188 63.601562 105.648438 C 63.992188 105.183594 64.191406 104.488281 64.191406 103.566406 C 64.191406 102.621094 64.003906 101.925781 63.628906 101.472656 C 63.253906 101.023438 62.800781 100.796875 62.269531 100.792969 C 61.726562 100.796875 61.265625 101.03125 60.875 101.496094 C 60.480469 101.964844 60.285156 102.636719 60.289062 103.519531 Z M 71.894531 104.863281 L 73.164062 105.019531 C 72.960938 105.757812 72.589844 106.335938 72.046875 106.742188 C 71.507812 107.152344 70.816406 107.355469 69.980469 107.355469 C 68.921875 107.355469 68.078125 107.03125 67.460938 106.378906 C 66.835938 105.730469 66.523438 104.816406 66.527344 103.632812 C 66.523438 102.417969 66.839844 101.472656 67.46875 100.796875 C 68.09375 100.128906 68.910156 99.792969 69.910156 99.789062 C 70.875 99.792969 71.667969 100.125 72.28125 100.777344 C 72.894531 101.441406 73.199219 102.363281 73.203125 103.558594 C 73.199219 103.632812 73.199219 103.742188 73.199219 103.882812 L 67.796875 103.882812 C 67.839844 104.683594 68.066406 105.292969 68.472656 105.714844 C 68.878906 106.140625 69.378906 106.351562 69.984375 106.347656 C 70.433594 106.351562 70.816406 106.234375 71.136719 105.992188 C 71.457031 105.757812 71.707031 105.378906 71.894531 104.863281 Z M 67.863281 102.875 L 71.910156 102.875 C 71.855469 102.269531 71.699219 101.816406 71.445312 101.503906 C 71.050781 101.035156 70.546875 100.796875 69.925781 100.792969 C 69.359375 100.796875 68.886719 100.988281 68.503906 101.363281 C 68.113281 101.746094 67.902344 102.25 67.863281 102.875 Z M 74.675781 107.191406 L 74.675781 97.195312 L 75.902344 97.195312 L 75.902344 107.191406 Z M 82.757812 104.863281 L 84.027344 105.019531 C 83.828125 105.757812 83.457031 106.335938 82.914062 106.742188 C 82.375 107.152344 81.683594 107.355469 80.847656 107.355469 C 79.785156 107.355469 78.945312 107.03125 78.324219 106.378906 C 77.703125 105.730469 77.390625 104.816406 77.394531 103.632812 C 77.390625 102.417969 77.707031 101.472656 78.332031 100.796875 C 78.960938 100.128906 79.773438 99.792969 80.777344 99.789062 C 81.742188 99.792969 82.53125 100.125 83.148438 100.777344 C 83.761719 101.441406 84.0625 102.363281 84.066406 103.558594 C 84.0625 103.632812 84.0625 103.742188 84.0625 103.882812 L 78.664062 103.882812 C 78.707031 104.683594 78.933594 105.292969 79.339844 105.714844 C 79.742188 106.140625 80.246094 106.351562 80.851562 106.347656 C 81.296875 106.351562 81.683594 106.234375 82.003906 105.992188 C 82.324219 105.757812 82.570312 105.378906 82.757812 104.863281 Z M 78.730469 102.875 L 82.773438 102.875 C 82.71875 102.269531 82.5625 101.816406 82.3125 101.503906 C 81.917969 101.035156 81.410156 100.796875 80.792969 100.792969 C 80.226562 100.796875 79.75 100.988281 79.371094 101.363281 C 78.980469 101.746094 78.769531 102.25 78.730469 102.875 Z M 26.691406 94.550781 "/>
<path fill="none" stroke-width="1" stroke-linecap="butt" stroke-linejoin="miter" stroke="rgb(0%, 0%, 0%)" stroke-opacity="1" stroke-miterlimit="4" d="M 225.637501 -144.000851 L 139.638486 -144.000851 L 139.638486 -108.00017 L 225.637501 -108.00017 Z M 225.637501 -144.000851 " transform="matrix(0.997377, 0, 0, 0.997377, 3.989508, 201.74032)"/>
<path fill-rule="nonzero" fill="rgb(0%, 0%, 0%)" fill-opacity="1" d="M 162.582031 76.660156 L 163.714844 76.945312 C 163.476562 77.878906 163.046875 78.585938 162.433594 79.078125 C 161.8125 79.566406 161.058594 79.808594 160.164062 79.8125 C 159.242188 79.808594 158.488281 79.625 157.914062 79.246094 C 157.332031 78.871094 156.890625 78.328125 156.59375 77.613281 C 156.289062 76.902344 156.140625 76.132812 156.140625 75.316406 C 156.140625 74.421875 156.308594 73.648438 156.652344 72.980469 C 156.988281 72.320312 157.476562 71.8125 158.109375 71.46875 C 158.734375 71.125 159.429688 70.957031 160.183594 70.953125 C 161.042969 70.957031 161.761719 71.171875 162.347656 71.605469 C 162.929688 72.046875 163.335938 72.65625 163.570312 73.445312 L 162.453125 73.710938 C 162.25 73.089844 161.960938 72.632812 161.585938 72.347656 C 161.207031 72.0625 160.734375 71.921875 160.160156 71.917969 C 159.503906 71.921875 158.949219 72.078125 158.507812 72.394531 C 158.066406 72.710938 157.757812 73.136719 157.578125 73.667969 C 157.398438 74.195312 157.308594 74.746094 157.308594 75.308594 C 157.308594 76.039062 157.414062 76.675781 157.625 77.21875 C 157.835938 77.765625 158.167969 78.171875 158.617188 78.4375 C 159.066406 78.703125 159.550781 78.839844 160.070312 78.835938 C 160.707031 78.839844 161.242188 78.65625 161.683594 78.289062 C 162.125 77.925781 162.425781 77.378906 162.582031 76.660156 Z M 169.023438 78.898438 C 168.632812 79.230469 168.257812 79.464844 167.898438 79.601562 C 167.53125 79.738281 167.144531 79.804688 166.742188 79.804688 C 166.054688 79.804688 165.535156 79.640625 165.167969 79.304688 C 164.800781 78.976562 164.617188 78.546875 164.617188 78.027344 C 164.617188 77.722656 164.683594 77.445312 164.824219 77.195312 C 164.960938 76.949219 165.144531 76.746094 165.371094 76.589844 C 165.59375 76.4375 165.84375 76.324219 166.125 76.242188 C 166.332031 76.195312 166.644531 76.140625 167.0625 76.085938 C 167.910156 75.984375 168.535156 75.863281 168.9375 75.722656 C 168.9375 75.582031 168.941406 75.496094 168.941406 75.449219 C 168.941406 75.027344 168.839844 74.722656 168.640625 74.542969 C 168.375 74.304688 167.976562 74.1875 167.445312 74.183594 C 166.949219 74.1875 166.582031 74.273438 166.347656 74.445312 C 166.113281 74.621094 165.9375 74.929688 165.828125 75.371094 L 164.800781 75.230469 C 164.890625 74.789062 165.046875 74.433594 165.261719 74.160156 C 165.472656 73.898438 165.777344 73.6875 166.1875 73.539062 C 166.589844 73.390625 167.0625 73.316406 167.597656 73.316406 C 168.128906 73.316406 168.558594 73.378906 168.886719 73.503906 C 169.21875 73.628906 169.464844 73.789062 169.621094 73.976562 C 169.777344 74.164062 169.886719 74.402344 169.949219 74.691406 C 169.980469 74.871094 169.996094 75.195312 170 75.65625 L 170 77.058594 C 169.996094 78.042969 170.019531 78.660156 170.066406 78.917969 C 170.109375 79.179688 170.199219 79.425781 170.332031 79.664062 L 169.234375 79.664062 C 169.125 79.445312 169.054688 79.191406 169.023438 78.898438 Z M 168.9375 76.546875 C 168.550781 76.707031 167.976562 76.839844 167.214844 76.945312 C 166.785156 77.007812 166.480469 77.078125 166.300781 77.152344 C 166.121094 77.234375 165.980469 77.347656 165.882812 77.496094 C 165.785156 77.648438 165.738281 77.816406 165.738281 77.996094 C 165.738281 78.28125 165.84375 78.511719 166.054688 78.695312 C 166.265625 78.886719 166.578125 78.980469 166.992188 78.976562 C 167.394531 78.980469 167.753906 78.890625 168.070312 78.710938 C 168.386719 78.535156 168.617188 78.296875 168.765625 77.988281 C 168.878906 77.75 168.933594 77.398438 168.9375 76.9375 Z M 173.929688 78.71875 L 174.082031 79.652344 C 173.785156 79.714844 173.519531 79.746094 173.285156 79.746094 C 172.90625 79.746094 172.609375 79.6875 172.398438 79.566406 C 172.1875 79.445312 172.039062 79.285156 171.953125 79.085938 C 171.867188 78.890625 171.824219 78.480469 171.824219 77.847656 L 171.824219 74.273438 L 171.054688 74.273438 L 171.054688 73.457031 L 171.824219 73.457031 L 171.824219 71.917969 L 172.871094 71.285156 L 172.871094 73.457031 L 173.929688 73.457031 L 173.929688 74.273438 L 172.871094 74.273438 L 172.871094 77.902344 C 172.867188 78.207031 172.886719 78.398438 172.925781 78.484375 C 172.964844 78.566406 173.023438 78.636719 173.105469 78.6875 C 173.1875 78.738281 173.308594 78.761719 173.46875 78.761719 C 173.578125 78.761719 173.734375 78.75 173.929688 78.71875 Z M 179.203125 77.664062 L 180.292969 77.800781 C 180.121094 78.4375 179.800781 78.925781 179.335938 79.277344 C 178.875 79.628906 178.28125 79.804688 177.5625 79.804688 C 176.652344 79.804688 175.933594 79.527344 175.402344 78.964844 C 174.863281 78.414062 174.597656 77.625 174.601562 76.613281 C 174.597656 75.566406 174.867188 74.757812 175.410156 74.179688 C 175.945312 73.605469 176.640625 73.316406 177.5 73.316406 C 178.332031 73.316406 179.007812 73.601562 179.535156 74.164062 C 180.0625 74.730469 180.328125 75.523438 180.328125 76.546875 C 180.328125 76.613281 180.324219 76.707031 180.324219 76.828125 L 175.695312 76.828125 C 175.726562 77.511719 175.921875 78.035156 176.269531 78.398438 C 176.617188 78.757812 177.050781 78.9375 177.566406 78.9375 C 177.953125 78.9375 178.28125 78.835938 178.558594 78.632812 C 178.828125 78.433594 179.042969 78.109375 179.203125 77.664062 Z M 175.75 75.960938 L 179.214844 75.960938 C 179.167969 75.449219 179.035156 75.054688 178.820312 74.789062 C 178.484375 74.382812 178.046875 74.179688 177.515625 74.179688 C 177.03125 74.179688 176.625 74.34375 176.296875 74.667969 C 175.96875 74.992188 175.785156 75.425781 175.75 75.960938 Z M 181.421875 80.175781 L 182.445312 80.328125 C 182.484375 80.640625 182.605469 80.871094 182.800781 81.019531 C 183.0625 81.214844 183.417969 81.3125 183.871094 81.3125 C 184.355469 81.3125 184.734375 81.214844 184.996094 81.019531 C 185.261719 80.824219 185.441406 80.550781 185.535156 80.199219 C 185.589844 79.984375 185.613281 79.539062 185.609375 78.851562 C 185.148438 79.394531 184.578125 79.664062 183.894531 79.664062 C 183.039062 79.664062 182.378906 79.355469 181.914062 78.738281 C 181.445312 78.125 181.210938 77.386719 181.210938 76.523438 C 181.210938 75.933594 181.316406 75.390625 181.53125 74.886719 C 181.746094 74.386719 182.054688 74 182.464844 73.726562 C 182.871094 73.453125 183.351562 73.316406 183.898438 73.316406 C 184.632812 73.316406 185.234375 73.613281 185.710938 74.203125 L 185.710938 73.457031 L 186.679688 73.457031 L 186.679688 78.820312 C 186.679688 79.789062 186.578125 80.46875 186.386719 80.875 C 186.1875 81.273438 185.875 81.589844 185.449219 81.828125 C 185.019531 82.058594 184.5 82.175781 183.875 82.179688 C 183.136719 82.175781 182.535156 82.007812 182.078125 81.679688 C 181.625 81.347656 181.40625 80.847656 181.421875 80.175781 Z M 182.289062 76.449219 C 182.285156 77.261719 182.449219 77.859375 182.777344 78.230469 C 183.101562 78.605469 183.503906 78.792969 183.992188 78.789062 C 184.476562 78.792969 184.882812 78.605469 185.207031 78.234375 C 185.535156 77.863281 185.699219 77.277344 185.699219 76.484375 C 185.699219 75.726562 185.527344 75.15625 185.191406 74.765625 C 184.855469 74.378906 184.449219 74.1875 183.972656 74.183594 C 183.5 74.1875 183.105469 74.378906 182.78125 74.757812 C 182.449219 75.140625 182.285156 75.699219 182.289062 76.449219 Z M 187.882812 76.5625 C 187.882812 75.414062 188.199219 74.558594 188.839844 74.007812 C 189.375 73.546875 190.023438 73.316406 190.792969 73.316406 C 191.644531 73.316406 192.34375 73.597656 192.882812 74.15625 C 193.421875 74.71875 193.691406 75.492188 193.695312 76.472656 C 193.691406 77.269531 193.570312 77.902344 193.335938 78.359375 C 193.09375 78.816406 192.746094 79.171875 192.292969 79.425781 C 191.832031 79.679688 191.332031 79.804688 190.792969 79.804688 C 189.917969 79.804688 189.214844 79.527344 188.683594 78.96875 C 188.144531 78.414062 187.882812 77.609375 187.882812 76.5625 Z M 188.964844 76.5625 C 188.960938 77.359375 189.136719 77.957031 189.480469 78.347656 C 189.824219 78.742188 190.261719 78.9375 190.792969 78.9375 C 191.3125 78.9375 191.746094 78.738281 192.09375 78.34375 C 192.4375 77.945312 192.613281 77.339844 192.613281 76.523438 C 192.613281 75.757812 192.4375 75.179688 192.089844 74.78125 C 191.738281 74.386719 191.304688 74.1875 190.792969 74.183594 C 190.261719 74.1875 189.824219 74.382812 189.480469 74.777344 C 189.136719 75.175781 188.960938 75.769531 188.964844 76.5625 Z M 194.917969 79.664062 L 194.917969 73.457031 L 195.859375 73.457031 L 195.859375 74.394531 C 196.101562 73.960938 196.324219 73.667969 196.53125 73.527344 C 196.734375 73.386719 196.957031 73.316406 197.207031 73.316406 C 197.558594 73.316406 197.921875 73.429688 198.289062 73.65625 L 197.925781 74.628906 C 197.667969 74.480469 197.410156 74.402344 197.152344 74.402344 C 196.921875 74.402344 196.71875 74.472656 196.535156 74.609375 C 196.347656 74.75 196.214844 74.941406 196.140625 75.1875 C 196.023438 75.558594 195.964844 75.96875 195.96875 76.414062 L 195.96875 79.664062 Z M 198.917969 72.308594 L 198.917969 71.09375 L 199.96875 71.09375 L 199.96875 72.308594 Z M 198.917969 79.664062 L 198.917969 73.457031 L 199.96875 73.457031 L 199.96875 79.664062 Z M 205.625 78.898438 C 205.234375 79.230469 204.855469 79.464844 204.496094 79.601562 C 204.132812 79.738281 203.746094 79.804688 203.339844 79.804688 C 202.65625 79.804688 202.132812 79.640625 201.765625 79.304688 C 201.398438 78.976562 201.21875 78.546875 201.21875 78.027344 C 201.21875 77.722656 201.28125 77.445312 201.421875 77.195312 C 201.558594 76.949219 201.742188 76.746094 201.96875 76.589844 C 202.191406 76.4375 202.445312 76.324219 202.726562 76.242188 C 202.929688 76.195312 203.242188 76.140625 203.660156 76.085938 C 204.507812 75.984375 205.132812 75.863281 205.539062 75.722656 C 205.539062 75.582031 205.542969 75.496094 205.542969 75.449219 C 205.542969 75.027344 205.441406 74.722656 205.242188 74.542969 C 204.972656 74.304688 204.574219 74.1875 204.046875 74.183594 C 203.546875 74.1875 203.179688 74.273438 202.945312 74.445312 C 202.714844 74.621094 202.539062 74.929688 202.429688 75.371094 L 201.398438 75.230469 C 201.488281 74.789062 201.644531 74.433594 201.859375 74.160156 C 202.070312 73.898438 202.378906 73.6875 202.785156 73.539062 C 203.1875 73.390625 203.660156 73.316406 204.199219 73.316406 C 204.726562 73.316406 205.15625 73.378906 205.488281 73.503906 C 205.816406 73.628906 206.0625 73.789062 206.21875 73.976562 C 206.375 74.164062 206.484375 74.402344 206.546875 74.691406 C 206.578125 74.871094 206.59375 75.195312 206.597656 75.65625 L 206.597656 77.058594 C 206.59375 78.042969 206.617188 78.660156 206.664062 78.917969 C 206.710938 79.179688 206.800781 79.425781 206.933594 79.664062 L 205.832031 79.664062 C 205.722656 79.445312 205.65625 79.191406 205.625 78.898438 Z M 205.539062 76.546875 C 205.148438 76.707031 204.574219 76.839844 203.816406 76.945312 C 203.382812 77.007812 203.078125 77.078125 202.898438 77.152344 C 202.722656 77.234375 202.582031 77.347656 202.484375 77.496094 C 202.386719 77.648438 202.339844 77.816406 202.339844 77.996094 C 202.339844 78.28125 202.445312 78.511719 202.65625 78.695312 C 202.863281 78.886719 203.175781 78.980469 203.589844 78.976562 C 203.996094 78.980469 204.351562 78.890625 204.667969 78.710938 C 204.984375 78.535156 205.21875 78.296875 205.367188 77.988281 C 205.480469 77.75 205.535156 77.398438 205.539062 76.9375 Z M 212.277344 78.898438 C 211.886719 79.230469 211.511719 79.464844 211.152344 79.601562 C 210.785156 79.738281 210.398438 79.804688 209.996094 79.804688 C 209.308594 79.804688 208.785156 79.640625 208.421875 79.304688 C 208.054688 78.976562 207.871094 78.546875 207.871094 78.027344 C 207.871094 77.722656 207.9375 77.445312 208.078125 77.195312 C 208.214844 76.949219 208.398438 76.746094 208.625 76.589844 C 208.84375 76.4375 209.097656 76.324219 209.378906 76.242188 C 209.585938 76.195312 209.898438 76.140625 210.3125 76.085938 C 211.164062 75.984375 211.785156 75.863281 212.191406 75.722656 C 212.191406 75.582031 212.195312 75.496094 212.195312 75.449219 C 212.195312 75.027344 212.09375 74.722656 211.894531 74.542969 C 211.628906 74.304688 211.230469 74.1875 210.699219 74.183594 C 210.199219 74.1875 209.835938 74.273438 209.601562 74.445312 C 209.367188 74.621094 209.191406 74.929688 209.082031 75.371094 L 208.054688 75.230469 C 208.144531 74.789062 208.300781 74.433594 208.515625 74.160156 C 208.722656 73.898438 209.03125 73.6875 209.441406 73.539062 C 209.84375 73.390625 210.3125 73.316406 210.851562 73.316406 C 211.382812 73.316406 211.808594 73.378906 212.140625 73.503906 C 212.472656 73.628906 212.71875 73.789062 212.875 73.976562 C 213.03125 74.164062 213.140625 74.402344 213.199219 74.691406 C 213.230469 74.871094 213.246094 75.195312 213.25 75.65625 L 213.25 77.058594 C 213.246094 78.042969 213.269531 78.660156 213.316406 78.917969 C 213.363281 79.179688 213.453125 79.425781 213.585938 79.664062 L 212.488281 79.664062 C 212.378906 79.445312 212.308594 79.191406 212.277344 78.898438 Z M 212.191406 76.546875 C 211.800781 76.707031 211.230469 76.839844 210.46875 76.945312 C 210.039062 77.007812 209.734375 77.078125 209.554688 77.152344 C 209.375 77.234375 209.234375 77.347656 209.136719 77.496094 C 209.039062 77.648438 208.992188 77.816406 208.992188 77.996094 C 208.992188 78.28125 209.097656 78.511719 209.308594 78.695312 C 209.519531 78.886719 209.832031 78.980469 210.242188 78.976562 C 210.648438 78.980469 211.007812 78.890625 211.324219 78.710938 C 211.640625 78.535156 211.871094 78.296875 212.019531 77.988281 C 212.132812 77.75 212.1875 77.398438 212.191406 76.9375 Z M 214.855469 79.664062 L 214.855469 71.09375 L 215.910156 71.09375 L 215.910156 79.664062 Z M 155.542969 68.828125 "/>
<path fill="none" stroke-width="1" stroke-linecap="butt" stroke-linejoin="miter" stroke="rgb(0%, 0%, 0%)" stroke-opacity="1" stroke-miterlimit="4" d="M 96.474485 -108.215579 C 107.127428 -110.416665 118.598924 -112.782245 129.592604 -115.049912 " transform="matrix(0.997377, 0, 0, 0.997377, 3.989508, 201.74032)"/>
<path fill-rule="nonzero" fill="rgb(0%, 0%, 0%)" fill-opacity="1" stroke-width="1" stroke-linecap="butt" stroke-linejoin="miter" stroke="rgb(0%, 0%, 0%)" stroke-opacity="1" stroke-miterlimit="4" d="M 129.009042 -118.504285 L 139.509241 -117.098253 L 130.422907 -111.65037 Z M 129.009042 -118.504285 " transform="matrix(0.997377, 0, 0, 0.997377, 3.989508, 201.74032)"/>
<path fill="none" stroke-width="1" stroke-linecap="butt" stroke-linejoin="miter" stroke="rgb(0%, 0%, 0%)" stroke-opacity="1" stroke-miterlimit="4" d="M 225.637501 -89.99983 L 139.638486 -89.99983 L 139.638486 -53.999149 L 225.637501 -53.999149 Z M 225.637501 -89.99983 " transform="matrix(0.997377, 0, 0, 0.997377, 3.989508, 201.74032)"/>
<path fill-rule="nonzero" fill="rgb(0%, 0%, 0%)" fill-opacity="1" d="M 156.089844 133.519531 L 156.089844 124.953125 L 157.222656 124.953125 L 157.222656 129.203125 L 161.476562 124.953125 L 163.011719 124.953125 L 159.421875 128.425781 L 163.171875 133.519531 L 161.675781 133.519531 L 158.625 129.183594 L 157.222656 130.550781 L 157.222656 133.519531 Z M 165.128906 133.519531 L 163.230469 127.316406 L 164.316406 127.316406 L 165.308594 130.894531 L 165.671875 132.226562 C 165.6875 132.164062 165.792969 131.738281 165.992188 130.949219 L 166.984375 127.316406 L 168.066406 127.316406 L 168.992188 130.914062 L 169.304688 132.101562 L 169.660156 130.902344 L 170.722656 127.316406 L 171.742188 127.316406 L 169.804688 133.519531 L 168.710938 133.519531 L 167.722656 129.804688 L 167.484375 128.746094 L 166.226562 133.519531 Z M 176.675781 132.757812 C 176.285156 133.089844 175.910156 133.324219 175.550781 133.457031 C 175.183594 133.59375 174.796875 133.660156 174.394531 133.660156 C 173.707031 133.660156 173.183594 133.496094 172.820312 133.164062 C 172.453125 132.835938 172.269531 132.40625 172.269531 131.886719 C 172.269531 131.582031 172.335938 131.304688 172.476562 131.054688 C 172.613281 130.804688 172.796875 130.601562 173.023438 130.449219 C 173.242188 130.296875 173.496094 130.183594 173.777344 130.101562 C 173.984375 130.054688 174.296875 130 174.710938 129.945312 C 175.5625 129.84375 176.183594 129.722656 176.589844 129.582031 C 176.589844 129.441406 176.59375 129.351562 176.59375 129.304688 C 176.59375 128.886719 176.492188 128.582031 176.292969 128.402344 C 176.023438 128.164062 175.628906 128.046875 175.097656 128.042969 C 174.597656 128.046875 174.234375 128.132812 174 128.304688 C 173.765625 128.480469 173.589844 128.789062 173.480469 129.226562 L 172.453125 129.085938 C 172.542969 128.648438 172.699219 128.292969 172.914062 128.019531 C 173.121094 127.753906 173.429688 127.542969 173.839844 127.398438 C 174.242188 127.25 174.710938 127.175781 175.25 127.175781 C 175.78125 127.175781 176.207031 127.238281 176.539062 127.363281 C 176.871094 127.488281 177.117188 127.644531 177.273438 127.832031 C 177.429688 128.023438 177.535156 128.261719 177.597656 128.550781 C 177.628906 128.730469 177.644531 129.050781 177.648438 129.515625 L 177.648438 130.917969 C 177.644531 131.902344 177.667969 132.519531 177.714844 132.777344 C 177.761719 133.039062 177.851562 133.285156 177.984375 133.519531 L 176.886719 133.519531 C 176.777344 133.304688 176.707031 133.050781 176.675781 132.757812 Z M 176.589844 130.40625 C 176.199219 130.5625 175.628906 130.695312 174.867188 130.800781 C 174.4375 130.867188 174.132812 130.9375 173.953125 131.011719 C 173.773438 131.09375 173.632812 131.207031 173.535156 131.355469 C 173.4375 131.507812 173.390625 131.675781 173.390625 131.855469 C 173.390625 132.136719 173.496094 132.371094 173.707031 132.554688 C 173.917969 132.746094 174.230469 132.839844 174.640625 132.835938 C 175.046875 132.839844 175.40625 132.75 175.722656 132.570312 C 176.035156 132.394531 176.269531 132.152344 176.417969 131.847656 C 176.53125 131.609375 176.585938 131.257812 176.589844 130.792969 Z M 179.28125 133.519531 L 179.28125 127.316406 L 180.234375 127.316406 L 180.234375 128.199219 C 180.683594 127.515625 181.34375 127.175781 182.203125 127.175781 C 182.574219 127.175781 182.917969 127.246094 183.238281 127.378906 C 183.546875 127.511719 183.785156 127.6875 183.941406 127.902344 C 184.097656 128.125 184.207031 128.382812 184.269531 128.683594 C 184.308594 128.878906 184.328125 129.21875 184.328125 129.703125 L 184.328125 133.519531 L 183.277344 133.519531 L 183.277344 129.746094 C 183.277344 129.316406 183.234375 128.996094 183.152344 128.785156 C 183.070312 128.574219 182.925781 128.40625 182.71875 128.277344 C 182.507812 128.152344 182.261719 128.085938 181.984375 128.085938 C 181.535156 128.085938 181.148438 128.230469 180.820312 128.515625 C 180.492188 128.800781 180.332031 129.335938 180.335938 130.132812 L 180.335938 133.519531 Z M 188.238281 132.578125 L 188.390625 133.507812 C 188.09375 133.570312 187.832031 133.601562 187.597656 133.601562 C 187.214844 133.601562 186.917969 133.542969 186.707031 133.425781 C 186.496094 133.304688 186.351562 133.144531 186.265625 132.945312 C 186.179688 132.75 186.136719 132.335938 186.136719 131.707031 L 186.136719 128.132812 L 185.363281 128.132812 L 185.363281 127.316406 L 186.136719 127.316406 L 186.136719 125.777344 L 187.179688 125.144531 L 187.179688 127.316406 L 188.238281 127.316406 L 188.238281 128.132812 L 187.179688 128.132812 L 187.179688 131.761719 C 187.175781 132.0625 187.195312 132.253906 187.234375 132.339844 C 187.273438 132.425781 187.332031 132.496094 187.417969 132.546875 C 187.5 132.597656 187.621094 132.621094 187.78125 132.621094 C 187.890625 132.621094 188.042969 132.609375 188.238281 132.578125 Z M 189.273438 126.164062 L 189.273438 124.953125 L 190.324219 124.953125 L 190.324219 126.164062 Z M 189.273438 133.519531 L 189.273438 127.316406 L 190.324219 127.316406 L 190.324219 133.519531 Z M 194.222656 132.578125 L 194.375 133.507812 C 194.078125 133.570312 193.816406 133.601562 193.582031 133.601562 C 193.199219 133.601562 192.902344 133.542969 192.691406 133.425781 C 192.480469 133.304688 192.335938 133.144531 192.25 132.945312 C 192.164062 132.75 192.121094 132.335938 192.121094 131.707031 L 192.121094 128.132812 L 191.347656 128.132812 L 191.347656 127.316406 L 192.121094 127.316406 L 192.121094 125.777344 L 193.164062 125.144531 L 193.164062 127.316406 L 194.222656 127.316406 L 194.222656 128.132812 L 193.164062 128.132812 L 193.164062 131.761719 C 193.160156 132.0625 193.179688 132.253906 193.21875 132.339844 C 193.257812 132.425781 193.316406 132.496094 193.402344 132.546875 C 193.484375 132.597656 193.605469 132.621094 193.765625 132.621094 C 193.871094 132.621094 194.027344 132.609375 194.222656 132.578125 Z M 199.300781 132.757812 C 198.910156 133.089844 198.53125 133.324219 198.175781 133.457031 C 197.808594 133.59375 197.421875 133.660156 197.015625 133.660156 C 196.332031 133.660156 195.808594 133.496094 195.441406 133.164062 C 195.078125 132.835938 194.894531 132.40625 194.894531 131.886719 C 194.894531 131.582031 194.960938 131.304688 195.101562 131.054688 C 195.238281 130.804688 195.417969 130.601562 195.644531 130.449219 C 195.867188 130.296875 196.121094 130.183594 196.402344 130.101562 C 196.609375 130.054688 196.917969 130 197.335938 129.945312 C 198.1875 129.84375 198.808594 129.722656 199.214844 129.582031 C 199.214844 129.441406 199.21875 129.351562 199.21875 129.304688 C 199.21875 128.886719 199.117188 128.582031 198.917969 128.402344 C 198.648438 128.164062 198.253906 128.046875 197.722656 128.042969 C 197.222656 128.046875 196.855469 128.132812 196.625 128.304688 C 196.390625 128.480469 196.214844 128.789062 196.105469 129.226562 L 195.078125 129.085938 C 195.167969 128.648438 195.320312 128.292969 195.535156 128.019531 C 195.746094 127.753906 196.054688 127.542969 196.464844 127.398438 C 196.863281 127.25 197.335938 127.175781 197.875 127.175781 C 198.402344 127.175781 198.832031 127.238281 199.164062 127.363281 C 199.496094 127.488281 199.742188 127.644531 199.894531 127.832031 C 200.050781 128.023438 200.160156 128.261719 200.222656 128.550781 C 200.253906 128.730469 200.269531 129.050781 200.273438 129.515625 L 200.273438 130.917969 C 200.269531 131.902344 200.292969 132.519531 200.339844 132.777344 C 200.386719 133.039062 200.476562 133.285156 200.609375 133.519531 L 199.511719 133.519531 C 199.402344 133.304688 199.332031 133.050781 199.300781 132.757812 Z M 199.214844 130.40625 C 198.824219 130.5625 198.253906 130.695312 197.492188 130.800781 C 197.058594 130.867188 196.757812 130.9375 196.578125 131.011719 C 196.398438 131.09375 196.257812 131.207031 196.160156 131.355469 C 196.0625 131.507812 196.015625 131.675781 196.015625 131.855469 C 196.015625 132.136719 196.121094 132.371094 196.332031 132.554688 C 196.542969 132.746094 196.851562 132.839844 197.265625 132.835938 C 197.671875 132.839844 198.03125 132.75 198.34375 132.570312 C 198.660156 132.394531 198.894531 132.152344 199.042969 131.847656 C 199.15625 131.609375 199.210938 131.257812 199.214844 130.792969 Z M 204.207031 132.578125 L 204.355469 133.507812 C 204.0625 133.570312 203.796875 133.601562 203.5625 133.601562 C 203.179688 133.601562 202.882812 133.542969 202.675781 133.425781 C 202.464844 133.304688 202.316406 133.144531 202.230469 132.945312 C 202.144531 132.75 202.101562 132.335938 202.101562 131.707031 L 202.101562 128.132812 L 201.328125 128.132812 L 201.328125 127.316406 L 202.101562 127.316406 L 202.101562 125.777344 L 203.144531 125.144531 L 203.144531 127.316406 L 204.207031 127.316406 L 204.207031 128.132812 L 203.144531 128.132812 L 203.144531 131.761719 C 203.140625 132.0625 203.160156 132.253906 203.199219 132.339844 C 203.238281 132.425781 203.296875 132.496094 203.382812 132.546875 C 203.464844 132.597656 203.585938 132.621094 203.746094 132.621094 C 203.855469 132.621094 204.011719 132.609375 204.207031 132.578125 Z M 205.238281 126.164062 L 205.238281 124.953125 L 206.289062 124.953125 L 206.289062 126.164062 Z M 205.238281 133.519531 L 205.238281 127.316406 L 206.289062 127.316406 L 206.289062 133.519531 Z M 212.140625 131.523438 L 213.226562 131.660156 C 213.058594 132.292969 212.738281 132.785156 212.273438 133.136719 C 211.808594 133.484375 211.21875 133.660156 210.5 133.660156 C 209.589844 133.660156 208.867188 133.386719 208.339844 132.824219 C 207.800781 132.269531 207.535156 131.484375 207.539062 130.472656 C 207.535156 129.425781 207.804688 128.617188 208.347656 128.039062 C 208.878906 127.464844 209.578125 127.175781 210.4375 127.175781 C 211.269531 127.175781 211.945312 127.460938 212.472656 128.023438 C 213 128.589844 213.261719 129.382812 213.261719 130.40625 C 213.261719 130.472656 213.257812 130.5625 213.257812 130.683594 L 208.632812 130.683594 C 208.664062 131.371094 208.855469 131.894531 209.207031 132.253906 C 209.554688 132.617188 209.988281 132.796875 210.503906 132.796875 C 210.890625 132.796875 211.21875 132.695312 211.496094 132.492188 C 211.761719 132.289062 211.980469 131.964844 212.140625 131.523438 Z M 208.6875 129.820312 L 212.152344 129.820312 C 212.105469 129.304688 211.972656 128.914062 211.753906 128.648438 C 211.421875 128.242188 210.984375 128.039062 210.453125 128.039062 C 209.96875 128.039062 209.5625 128.203125 209.234375 128.527344 C 208.902344 128.851562 208.71875 129.28125 208.6875 129.820312 Z M 214.796875 133.519531 L 214.796875 128.132812 L 213.867188 128.132812 L 213.867188 127.316406 L 214.796875 127.316406 L 214.796875 126.65625 C 214.796875 126.238281 214.832031 125.929688 214.910156 125.726562 C 215.003906 125.453125 215.183594 125.234375 215.441406 125.0625 C 215.699219 124.898438 216.058594 124.8125 216.515625 124.808594 C 216.8125 124.8125 217.140625 124.847656 217.5 124.910156 L 217.34375 125.832031 C 217.121094 125.792969 216.914062 125.773438 216.71875 125.773438 C 216.398438 125.773438 216.171875 125.84375 216.046875 125.980469 C 215.910156 126.113281 215.84375 126.367188 215.847656 126.742188 L 215.847656 127.316406 L 217.054688 127.316406 L 217.054688 128.132812 L 215.847656 128.132812 L 215.847656 133.519531 Z M 155.214844 122.6875 "/>
<path fill="none" stroke-width="1" stroke-linecap="butt" stroke-linejoin="miter" stroke="rgb(0%, 0%, 0%)" stroke-opacity="1" stroke-miterlimit="4" d="M 96.474485 -89.784421 C 107.127428 -87.583335 118.598924 -85.217755 129.592604 -82.950088 " transform="matrix(0.997377, 0, 0, 0.997377, 3.989508, 201.74032)"/>
<path fill-rule="nonzero" fill="rgb(0%, 0%, 0%)" fill-opacity="1" stroke-width="1" stroke-linecap="butt" stroke-linejoin="miter" stroke="rgb(0%, 0%, 0%)" stroke-opacity="1" stroke-miterlimit="4" d="M 130.422907 -86.34963 L 139.509241 -80.901747 L 129.009042 -79.495715 Z M 130.422907 -86.34963 " transform="matrix(0.997377, 0, 0, 0.997377, 3.989508, 201.74032)"/>
<path fill="none" stroke-width="1" stroke-linecap="butt" stroke-linejoin="miter" stroke="rgb(0%, 0%, 0%)" stroke-opacity="1" stroke-miterlimit="4" d="M 319.970878 -198.001872 L 261.524603 -198.001872 L 261.524603 -162.001191 L 319.970878 -162.001191 Z M 319.970878 -198.001872 " transform="matrix(0.997377, 0, 0, 0.997377, 3.989508, 201.74032)"/>
<path fill-rule="nonzero" fill="rgb(0%, 0%, 0%)" fill-opacity="1" d="M 273.671875 25.203125 L 273.671875 18.066406 L 274.640625 18.066406 L 278.390625 23.667969 L 278.390625 18.066406 L 279.296875 18.066406 L 279.296875 25.203125 L 278.328125 25.203125 L 274.578125 19.59375 L 274.578125 25.203125 Z M 280.445312 22.617188 C 280.441406 21.664062 280.707031 20.953125 281.246094 20.492188 C 281.683594 20.109375 282.230469 19.917969 282.875 19.914062 C 283.582031 19.917969 284.164062 20.152344 284.613281 20.613281 C 285.066406 21.082031 285.292969 21.726562 285.292969 22.546875 C 285.292969 23.214844 285.191406 23.734375 284.992188 24.117188 C 284.789062 24.5 284.496094 24.796875 284.121094 25.007812 C 283.734375 25.214844 283.320312 25.320312 282.875 25.320312 C 282.148438 25.320312 281.558594 25.089844 281.117188 24.625 C 280.664062 24.164062 280.441406 23.496094 280.445312 22.617188 Z M 281.347656 22.617188 C 281.34375 23.285156 281.484375 23.777344 281.777344 24.105469 C 282.066406 24.4375 282.433594 24.605469 282.875 24.601562 C 283.304688 24.605469 283.664062 24.4375 283.957031 24.105469 C 284.246094 23.773438 284.394531 23.273438 284.394531 22.589844 C 284.394531 21.953125 284.246094 21.464844 283.957031 21.136719 C 283.660156 20.808594 283.300781 20.644531 282.875 20.640625 C 282.433594 20.644531 282.066406 20.808594 281.777344 21.132812 C 281.484375 21.464844 281.34375 21.960938 281.347656 22.617188 Z M 286.320312 25.203125 L 286.320312 20.03125 L 287.105469 20.03125 L 287.105469 20.757812 C 287.265625 20.507812 287.476562 20.304688 287.75 20.148438 C 288.015625 19.996094 288.324219 19.917969 288.671875 19.914062 C 289.050781 19.917969 289.367188 19.996094 289.613281 20.15625 C 289.859375 20.316406 290.03125 20.539062 290.136719 20.820312 C 290.539062 20.21875 291.074219 19.917969 291.734375 19.914062 C 292.242188 19.917969 292.636719 20.058594 292.914062 20.34375 C 293.191406 20.625 293.332031 21.066406 293.332031 21.65625 L 293.332031 25.203125 L 292.457031 25.203125 L 292.457031 21.949219 C 292.453125 21.601562 292.425781 21.347656 292.371094 21.191406 C 292.3125 21.039062 292.207031 20.914062 292.058594 20.816406 C 291.90625 20.726562 291.734375 20.679688 291.539062 20.675781 C 291.171875 20.679688 290.871094 20.800781 290.628906 21.039062 C 290.386719 21.285156 290.269531 21.671875 290.269531 22.199219 L 290.269531 25.203125 L 289.394531 25.203125 L 289.394531 21.847656 C 289.390625 21.460938 289.320312 21.167969 289.179688 20.96875 C 289.035156 20.777344 288.800781 20.679688 288.476562 20.675781 C 288.226562 20.679688 288 20.746094 287.792969 20.871094 C 287.578125 21.003906 287.425781 21.191406 287.339844 21.441406 C 287.242188 21.691406 287.195312 22.050781 287.199219 22.519531 L 287.199219 25.203125 Z M 294.632812 19.074219 L 294.632812 18.066406 L 295.507812 18.066406 L 295.507812 19.074219 Z M 294.632812 25.203125 L 294.632812 20.03125 L 295.507812 20.03125 L 295.507812 25.203125 Z M 296.84375 25.203125 L 296.84375 20.03125 L 297.632812 20.03125 L 297.632812 20.765625 C 298.007812 20.203125 298.558594 19.917969 299.28125 19.914062 C 299.585938 19.917969 299.875 19.972656 300.136719 20.085938 C 300.398438 20.199219 300.59375 20.347656 300.726562 20.527344 C 300.851562 20.707031 300.941406 20.921875 300.996094 21.171875 C 301.027344 21.335938 301.046875 21.621094 301.046875 22.027344 L 301.046875 25.203125 L 300.167969 25.203125 L 300.167969 22.054688 C 300.164062 21.703125 300.132812 21.4375 300.066406 21.257812 C 299.996094 21.085938 299.875 20.945312 299.703125 20.835938 C 299.527344 20.734375 299.320312 20.679688 299.09375 20.675781 C 298.714844 20.679688 298.394531 20.796875 298.125 21.03125 C 297.851562 21.269531 297.71875 21.722656 297.722656 22.378906 L 297.722656 25.203125 Z M 305.761719 24.566406 C 305.433594 24.847656 305.121094 25.039062 304.824219 25.148438 C 304.519531 25.265625 304.199219 25.320312 303.855469 25.320312 C 303.289062 25.320312 302.851562 25.183594 302.546875 24.90625 C 302.242188 24.632812 302.085938 24.277344 302.089844 23.839844 C 302.085938 23.589844 302.144531 23.359375 302.261719 23.148438 C 302.371094 22.9375 302.523438 22.769531 302.714844 22.644531 C 302.898438 22.519531 303.109375 22.425781 303.347656 22.355469 C 303.515625 22.3125 303.773438 22.265625 304.125 22.222656 C 304.835938 22.136719 305.351562 22.042969 305.6875 21.925781 C 305.6875 21.808594 305.691406 21.730469 305.695312 21.695312 C 305.691406 21.339844 305.609375 21.085938 305.445312 20.9375 C 305.222656 20.742188 304.886719 20.644531 304.449219 20.640625 C 304.03125 20.644531 303.730469 20.71875 303.535156 20.859375 C 303.335938 21.007812 303.191406 21.261719 303.097656 21.625 L 302.242188 21.507812 C 302.3125 21.144531 302.441406 20.847656 302.625 20.617188 C 302.800781 20.398438 303.0625 20.222656 303.402344 20.097656 C 303.738281 19.976562 304.125 19.917969 304.574219 19.914062 C 305.015625 19.917969 305.371094 19.96875 305.648438 20.070312 C 305.921875 20.175781 306.125 20.308594 306.257812 20.464844 C 306.386719 20.625 306.476562 20.824219 306.53125 21.058594 C 306.558594 21.214844 306.574219 21.484375 306.578125 21.871094 L 306.578125 23.039062 C 306.574219 23.855469 306.59375 24.371094 306.632812 24.585938 C 306.667969 24.804688 306.738281 25.011719 306.851562 25.203125 L 305.9375 25.203125 C 305.84375 25.023438 305.785156 24.816406 305.761719 24.566406 Z M 305.6875 22.609375 C 305.367188 22.742188 304.894531 22.855469 304.257812 22.941406 C 303.894531 22.996094 303.640625 23.054688 303.492188 23.117188 C 303.339844 23.1875 303.226562 23.28125 303.144531 23.402344 C 303.0625 23.53125 303.019531 23.667969 303.023438 23.816406 C 303.019531 24.054688 303.109375 24.25 303.289062 24.402344 C 303.464844 24.5625 303.726562 24.640625 304.066406 24.636719 C 304.402344 24.640625 304.703125 24.566406 304.96875 24.414062 C 305.230469 24.269531 305.417969 24.066406 305.546875 23.804688 C 305.636719 23.609375 305.683594 23.320312 305.6875 22.929688 Z M 311.308594 24.566406 C 310.984375 24.847656 310.667969 25.039062 310.371094 25.148438 C 310.066406 25.265625 309.746094 25.320312 309.40625 25.320312 C 308.835938 25.320312 308.398438 25.183594 308.097656 24.90625 C 307.789062 24.632812 307.632812 24.277344 307.636719 23.839844 C 307.632812 23.589844 307.691406 23.359375 307.808594 23.148438 C 307.921875 22.9375 308.074219 22.769531 308.261719 22.644531 C 308.445312 22.519531 308.65625 22.425781 308.894531 22.355469 C 309.0625 22.3125 309.324219 22.265625 309.675781 22.222656 C 310.382812 22.136719 310.902344 22.042969 311.234375 21.925781 C 311.234375 21.808594 311.238281 21.730469 311.242188 21.695312 C 311.238281 21.339844 311.160156 21.085938 310.996094 20.9375 C 310.769531 20.742188 310.433594 20.644531 309.996094 20.640625 C 309.582031 20.644531 309.277344 20.71875 309.082031 20.859375 C 308.882812 21.007812 308.738281 21.261719 308.644531 21.625 L 307.789062 21.507812 C 307.863281 21.144531 307.992188 20.847656 308.175781 20.617188 C 308.347656 20.398438 308.609375 20.222656 308.949219 20.097656 C 309.285156 19.976562 309.675781 19.917969 310.121094 19.914062 C 310.5625 19.917969 310.921875 19.96875 311.195312 20.070312 C 311.46875 20.175781 311.671875 20.308594 311.804688 20.464844 C 311.933594 20.625 312.023438 20.824219 312.078125 21.058594 C 312.105469 21.214844 312.121094 21.484375 312.125 21.871094 L 312.125 23.039062 C 312.121094 23.855469 312.140625 24.371094 312.179688 24.585938 C 312.214844 24.804688 312.289062 25.011719 312.402344 25.203125 L 311.484375 25.203125 C 311.390625 25.023438 311.332031 24.816406 311.308594 24.566406 Z M 311.234375 22.609375 C 310.917969 22.742188 310.441406 22.855469 309.804688 22.941406 C 309.445312 22.996094 309.1875 23.054688 309.039062 23.117188 C 308.886719 23.1875 308.773438 23.28125 308.691406 23.402344 C 308.609375 23.53125 308.566406 23.667969 308.570312 23.816406 C 308.566406 24.054688 308.65625 24.25 308.835938 24.402344 C 309.011719 24.5625 309.273438 24.640625 309.617188 24.636719 C 309.949219 24.640625 310.25 24.566406 310.515625 24.414062 C 310.777344 24.269531 310.96875 24.066406 311.097656 23.804688 C 311.183594 23.609375 311.230469 23.320312 311.234375 22.929688 Z M 313.464844 25.203125 L 313.464844 18.066406 L 314.339844 18.066406 L 314.339844 25.203125 Z M 272.910156 16.171875 "/>
<path fill="none" stroke-width="1" stroke-linecap="butt" stroke-linejoin="miter" stroke="rgb(0%, 0%, 0%)" stroke-opacity="1" stroke-miterlimit="4" d="M 218.93633 -144.130096 C 229.659771 -149.4879 241.432839 -155.366601 252.285525 -160.787069 " transform="matrix(0.997377, 0, 0, 0.997377, 3.989508, 201.74032)"/>
<path fill-rule="nonzero" fill="rgb(0%, 0%, 0%)" fill-opacity="1" stroke-width="1" stroke-linecap="butt" stroke-linejoin="miter" stroke="rgb(0%, 0%, 0%)" stroke-opacity="1" stroke-miterlimit="4" d="M 251.028321 -164.073032 L 261.536353 -165.408566 L 254.153706 -157.810512 Z M 251.028321 -164.073032 " transform="matrix(0.997377, 0, 0, 0.997377, 3.989508, 201.74032)"/>
<path fill="none" stroke-width="1" stroke-linecap="butt" stroke-linejoin="miter" stroke="rgb(0%, 0%, 0%)" stroke-opacity="1" stroke-miterlimit="4" d="M 319.747636 -144.000851 L 261.747845 -144.000851 L 261.747845 -108.00017 L 319.747636 -108.00017 Z M 319.747636 -144.000851 " transform="matrix(0.997377, 0, 0, 0.997377, 3.989508, 201.74032)"/>
<path fill-rule="nonzero" fill="rgb(0%, 0%, 0%)" fill-opacity="1" d="M 275.605469 75.585938 C 275.601562 74.402344 275.921875 73.476562 276.5625 72.800781 C 277.195312 72.136719 278.015625 71.800781 279.023438 71.796875 C 279.679688 71.800781 280.273438 71.957031 280.804688 72.273438 C 281.335938 72.585938 281.734375 73.027344 282.015625 73.589844 C 282.289062 74.152344 282.429688 74.792969 282.433594 75.503906 C 282.429688 76.230469 282.28125 76.878906 281.992188 77.445312 C 281.695312 78.019531 281.285156 78.453125 280.753906 78.742188 C 280.214844 79.035156 279.640625 79.179688 279.019531 79.183594 C 278.347656 79.179688 277.746094 79.019531 277.214844 78.695312 C 276.6875 78.375 276.285156 77.929688 276.015625 77.367188 C 275.738281 76.808594 275.601562 76.214844 275.605469 75.585938 Z M 276.582031 75.597656 C 276.578125 76.460938 276.8125 77.136719 277.273438 77.632812 C 277.734375 78.132812 278.316406 78.382812 279.015625 78.378906 C 279.726562 78.382812 280.308594 78.132812 280.769531 77.628906 C 281.230469 77.128906 281.460938 76.417969 281.460938 75.5 C 281.460938 74.917969 281.359375 74.410156 281.164062 73.980469 C 280.964844 73.546875 280.679688 73.210938 280.300781 72.96875 C 279.925781 72.730469 279.5 72.609375 279.027344 72.609375 C 278.359375 72.609375 277.78125 72.839844 277.300781 73.300781 C 276.820312 73.761719 276.578125 74.527344 276.582031 75.597656 Z M 283.527344 79.0625 L 283.527344 73.890625 L 284.320312 73.890625 L 284.320312 74.675781 C 284.515625 74.308594 284.699219 74.066406 284.875 73.949219 C 285.042969 73.835938 285.230469 73.777344 285.4375 73.773438 C 285.730469 73.777344 286.03125 73.871094 286.339844 74.054688 L 286.035156 74.871094 C 285.824219 74.746094 285.609375 74.679688 285.394531 74.679688 C 285.199219 74.679688 285.023438 74.738281 284.875 74.855469 C 284.71875 74.972656 284.613281 75.132812 284.550781 75.332031 C 284.449219 75.644531 284.402344 75.988281 284.40625 76.355469 L 284.40625 79.0625 Z M 290.21875 79.0625 L 290.21875 78.410156 C 289.886719 78.921875 289.402344 79.179688 288.773438 79.179688 C 288.355469 79.179688 287.976562 79.066406 287.632812 78.839844 C 287.289062 78.613281 287.019531 78.300781 286.832031 77.886719 C 286.636719 77.480469 286.542969 77.011719 286.546875 76.484375 C 286.542969 75.96875 286.628906 75.5 286.804688 75.078125 C 286.972656 74.65625 287.230469 74.335938 287.574219 74.109375 C 287.917969 73.890625 288.304688 73.777344 288.734375 73.773438 C 289.039062 73.777344 289.316406 73.84375 289.5625 73.972656 C 289.804688 74.105469 290.003906 74.277344 290.160156 74.484375 L 290.160156 71.925781 L 291.03125 71.925781 L 291.03125 79.0625 Z M 287.445312 76.484375 C 287.441406 77.144531 287.582031 77.640625 287.863281 77.96875 C 288.144531 78.300781 288.472656 78.464844 288.855469 78.460938 C 289.234375 78.464844 289.5625 78.308594 289.832031 77.992188 C 290.097656 77.679688 290.230469 77.199219 290.234375 76.554688 C 290.230469 75.851562 290.09375 75.335938 289.824219 75 C 289.546875 74.671875 289.210938 74.503906 288.816406 74.5 C 288.421875 74.503906 288.09375 74.664062 287.835938 74.980469 C 287.570312 75.300781 287.441406 75.800781 287.445312 76.484375 Z M 292.410156 72.929688 L 292.410156 71.925781 L 293.289062 71.925781 L 293.289062 72.929688 Z M 292.410156 79.0625 L 292.410156 73.890625 L 293.289062 73.890625 L 293.289062 79.0625 Z M 294.625 79.0625 L 294.625 73.890625 L 295.410156 73.890625 L 295.410156 74.625 C 295.789062 74.058594 296.335938 73.777344 297.058594 73.773438 C 297.367188 73.777344 297.65625 73.832031 297.914062 73.945312 C 298.175781 74.054688 298.371094 74.203125 298.503906 74.382812 C 298.632812 74.566406 298.722656 74.78125 298.777344 75.03125 C 298.808594 75.195312 298.828125 75.480469 298.828125 75.882812 L 298.828125 79.0625 L 297.945312 79.0625 L 297.945312 75.914062 C 297.941406 75.558594 297.910156 75.296875 297.84375 75.117188 C 297.777344 74.945312 297.65625 74.804688 297.484375 74.695312 C 297.308594 74.59375 297.101562 74.539062 296.871094 74.535156 C 296.492188 74.539062 296.175781 74.65625 295.90625 74.890625 C 295.632812 75.128906 295.496094 75.578125 295.5 76.238281 L 295.5 79.0625 Z M 303.546875 78.425781 C 303.21875 78.703125 302.902344 78.898438 302.605469 79.007812 C 302.300781 79.125 301.984375 79.179688 301.640625 79.179688 C 301.070312 79.179688 300.636719 79.042969 300.332031 78.761719 C 300.023438 78.492188 299.867188 78.136719 299.871094 77.699219 C 299.867188 77.449219 299.925781 77.214844 300.042969 77.007812 C 300.15625 76.796875 300.308594 76.628906 300.5 76.503906 C 300.683594 76.378906 300.890625 76.285156 301.128906 76.214844 C 301.296875 76.171875 301.558594 76.125 301.910156 76.082031 C 302.617188 75.996094 303.136719 75.898438 303.472656 75.78125 C 303.472656 75.664062 303.476562 75.585938 303.480469 75.550781 C 303.476562 75.199219 303.394531 74.945312 303.230469 74.796875 C 303.003906 74.601562 302.667969 74.503906 302.234375 74.5 C 301.816406 74.503906 301.511719 74.578125 301.316406 74.71875 C 301.117188 74.867188 300.972656 75.121094 300.878906 75.484375 L 300.023438 75.367188 C 300.097656 75.003906 300.226562 74.707031 300.410156 74.476562 C 300.585938 74.253906 300.84375 74.078125 301.183594 73.957031 C 301.519531 73.835938 301.910156 73.777344 302.355469 73.773438 C 302.796875 73.777344 303.15625 73.828125 303.433594 73.929688 C 303.707031 74.035156 303.90625 74.164062 304.039062 74.320312 C 304.167969 74.484375 304.257812 74.683594 304.3125 74.917969 C 304.339844 75.074219 304.355469 75.34375 304.359375 75.726562 L 304.359375 76.898438 C 304.355469 77.714844 304.375 78.230469 304.414062 78.445312 C 304.449219 78.660156 304.523438 78.867188 304.636719 79.0625 L 303.722656 79.0625 C 303.628906 78.882812 303.570312 78.671875 303.546875 78.425781 Z M 303.472656 76.46875 C 303.152344 76.601562 302.675781 76.714844 302.042969 76.800781 C 301.679688 76.855469 301.421875 76.914062 301.273438 76.976562 C 301.121094 77.042969 301.007812 77.136719 300.925781 77.257812 C 300.84375 77.386719 300.800781 77.527344 300.804688 77.675781 C 300.800781 77.914062 300.890625 78.109375 301.070312 78.261719 C 301.246094 78.421875 301.507812 78.496094 301.851562 78.492188 C 302.1875 78.496094 302.484375 78.425781 302.75 78.273438 C 303.011719 78.128906 303.203125 77.925781 303.332031 77.664062 C 303.421875 77.46875 303.46875 77.175781 303.472656 76.789062 Z M 309.09375 78.425781 C 308.765625 78.703125 308.449219 78.898438 308.15625 79.007812 C 307.851562 79.125 307.53125 79.179688 307.1875 79.179688 C 306.621094 79.179688 306.183594 79.042969 305.878906 78.761719 C 305.570312 78.492188 305.414062 78.136719 305.417969 77.699219 C 305.414062 77.449219 305.472656 77.214844 305.589844 77.007812 C 305.703125 76.796875 305.855469 76.628906 306.046875 76.503906 C 306.230469 76.378906 306.441406 76.285156 306.679688 76.214844 C 306.84375 76.171875 307.105469 76.125 307.457031 76.082031 C 308.167969 75.996094 308.683594 75.898438 309.019531 75.78125 C 309.019531 75.664062 309.023438 75.585938 309.027344 75.550781 C 309.023438 75.199219 308.941406 74.945312 308.777344 74.796875 C 308.550781 74.601562 308.214844 74.503906 307.78125 74.5 C 307.363281 74.503906 307.058594 74.578125 306.863281 74.71875 C 306.667969 74.867188 306.523438 75.121094 306.429688 75.484375 L 305.570312 75.367188 C 305.644531 75.003906 305.773438 74.707031 305.957031 74.476562 C 306.132812 74.253906 306.394531 74.078125 306.730469 73.957031 C 307.066406 73.835938 307.457031 73.777344 307.90625 73.773438 C 308.34375 73.777344 308.703125 73.828125 308.980469 73.929688 C 309.253906 74.035156 309.457031 74.164062 309.589844 74.320312 C 309.714844 74.484375 309.804688 74.683594 309.859375 74.917969 C 309.886719 75.074219 309.902344 75.34375 309.90625 75.726562 L 309.90625 76.898438 C 309.902344 77.714844 309.921875 78.230469 309.960938 78.445312 C 309.996094 78.660156 310.070312 78.867188 310.183594 79.0625 L 309.269531 79.0625 C 309.175781 78.882812 309.117188 78.671875 309.09375 78.425781 Z M 309.019531 76.46875 C 308.699219 76.601562 308.222656 76.714844 307.589844 76.800781 C 307.226562 76.855469 306.96875 76.914062 306.820312 76.976562 C 306.671875 77.042969 306.558594 77.136719 306.476562 77.257812 C 306.394531 77.386719 306.351562 77.527344 306.355469 77.675781 C 306.351562 77.914062 306.441406 78.109375 306.621094 78.261719 C 306.792969 78.421875 307.054688 78.496094 307.398438 78.492188 C 307.734375 78.496094 308.035156 78.425781 308.296875 78.273438 C 308.558594 78.128906 308.75 77.925781 308.878906 77.664062 C 308.96875 77.46875 309.015625 77.175781 309.019531 76.789062 Z M 311.242188 79.0625 L 311.242188 71.925781 L 312.121094 71.925781 L 312.121094 79.0625 Z M 275.125 70.03125 "/>
<path fill="none" stroke-width="1" stroke-linecap="butt" stroke-linejoin="miter" stroke="rgb(0%, 0%, 0%)" stroke-opacity="1" stroke-miterlimit="4" d="M 225.676667 -126.000511 C 234.124607 -126.000511 242.944617 -126.000511 251.267229 -126.000511 " transform="matrix(0.997377, 0, 0, 0.997377, 3.989508, 201.74032)"/>
<path fill-rule="nonzero" fill="rgb(0%, 0%, 0%)" fill-opacity="1" stroke-width="1" stroke-linecap="butt" stroke-linejoin="miter" stroke="rgb(0%, 0%, 0%)" stroke-opacity="1" stroke-miterlimit="4" d="M 251.474805 -129.501882 L 261.477605 -126.000511 L 251.474805 -122.499139 Z M 251.474805 -129.501882 " transform="matrix(0.997377, 0, 0, 0.997377, 3.989508, 201.74032)"/>
<path fill="none" stroke-width="1" stroke-linecap="butt" stroke-linejoin="miter" stroke="rgb(0%, 0%, 0%)" stroke-opacity="1" stroke-miterlimit="4" d="M 319.747636 -89.99983 L 261.747845 -89.99983 L 261.747845 -53.999149 L 319.747636 -53.999149 Z M 319.747636 -89.99983 " transform="matrix(0.997377, 0, 0, 0.997377, 3.989508, 201.74032)"/>
<path fill-rule="nonzero" fill="rgb(0%, 0%, 0%)" fill-opacity="1" d="M 278.550781 132.921875 L 278.550781 125.785156 L 279.496094 125.785156 L 279.496094 132.921875 Z M 281.050781 132.921875 L 281.050781 127.746094 L 281.835938 127.746094 L 281.835938 128.484375 C 282.214844 127.917969 282.765625 127.632812 283.484375 127.628906 C 283.792969 127.632812 284.082031 127.6875 284.34375 127.800781 C 284.601562 127.914062 284.796875 128.0625 284.929688 128.242188 C 285.058594 128.425781 285.148438 128.640625 285.203125 128.890625 C 285.234375 129.050781 285.253906 129.335938 285.253906 129.742188 L 285.253906 132.921875 L 284.375 132.921875 L 284.375 129.773438 C 284.371094 129.417969 284.339844 129.152344 284.273438 128.976562 C 284.203125 128.804688 284.082031 128.664062 283.910156 128.554688 C 283.734375 128.453125 283.527344 128.398438 283.296875 128.394531 C 282.921875 128.398438 282.601562 128.515625 282.332031 128.75 C 282.058594 128.988281 281.921875 129.4375 281.925781 130.097656 L 281.925781 132.921875 Z M 288.511719 132.136719 L 288.636719 132.914062 C 288.386719 132.96875 288.167969 132.992188 287.972656 132.992188 C 287.652344 132.992188 287.40625 132.941406 287.234375 132.839844 C 287.054688 132.738281 286.933594 132.605469 286.863281 132.441406 C 286.792969 132.277344 286.757812 131.9375 286.757812 131.40625 L 286.757812 128.433594 L 286.113281 128.433594 L 286.113281 127.746094 L 286.757812 127.746094 L 286.757812 126.46875 L 287.628906 125.945312 L 287.628906 127.746094 L 288.511719 127.746094 L 288.511719 128.433594 L 287.628906 128.433594 L 287.628906 131.457031 C 287.625 131.710938 287.640625 131.871094 287.675781 131.941406 C 287.703125 132.007812 287.753906 132.066406 287.824219 132.109375 C 287.890625 132.152344 287.992188 132.171875 288.125 132.171875 C 288.222656 132.171875 288.351562 132.160156 288.511719 132.136719 Z M 292.910156 131.253906 L 293.8125 131.367188 C 293.664062 131.898438 293.398438 132.308594 293.019531 132.601562 C 292.628906 132.894531 292.136719 133.039062 291.539062 133.039062 C 290.78125 133.039062 290.183594 132.808594 289.738281 132.339844 C 289.292969 131.878906 289.070312 131.222656 289.074219 130.382812 C 289.070312 129.511719 289.292969 128.835938 289.746094 128.351562 C 290.191406 127.871094 290.773438 127.632812 291.492188 127.628906 C 292.179688 127.632812 292.746094 127.867188 293.1875 128.339844 C 293.621094 128.8125 293.839844 129.472656 293.84375 130.328125 C 293.839844 130.382812 293.835938 130.460938 293.835938 130.558594 L 289.980469 130.558594 C 290.011719 131.128906 290.175781 131.566406 290.460938 131.867188 C 290.75 132.167969 291.109375 132.320312 291.546875 132.316406 C 291.863281 132.320312 292.132812 132.234375 292.363281 132.0625 C 292.589844 131.898438 292.773438 131.628906 292.910156 131.253906 Z M 290.03125 129.839844 L 292.917969 129.839844 C 292.878906 129.40625 292.765625 129.078125 292.585938 128.863281 C 292.304688 128.527344 291.941406 128.359375 291.5 128.355469 C 291.09375 128.359375 290.753906 128.492188 290.480469 128.761719 C 290.207031 129.027344 290.058594 129.390625 290.03125 129.839844 Z M 294.902344 132.921875 L 294.902344 127.746094 L 295.695312 127.746094 L 295.695312 128.535156 C 295.894531 128.167969 296.078125 127.925781 296.253906 127.804688 C 296.417969 127.691406 296.605469 127.632812 296.8125 127.628906 C 297.105469 127.632812 297.410156 127.726562 297.71875 127.914062 L 297.414062 128.730469 C 297.199219 128.605469 296.984375 128.539062 296.769531 128.539062 C 296.574219 128.539062 296.398438 128.597656 296.253906 128.714844 C 296.097656 128.832031 295.992188 128.992188 295.929688 129.1875 C 295.828125 129.503906 295.777344 129.847656 295.78125 130.214844 L 295.78125 132.921875 Z M 299.671875 132.921875 L 297.703125 127.746094 L 298.628906 127.746094 L 299.738281 130.847656 C 299.855469 131.183594 299.964844 131.53125 300.070312 131.890625 C 300.144531 131.621094 300.253906 131.292969 300.398438 130.902344 L 301.546875 127.746094 L 302.445312 127.746094 L 300.492188 132.921875 Z M 306.597656 132.28125 C 306.269531 132.5625 305.953125 132.757812 305.65625 132.867188 C 305.351562 132.984375 305.035156 133.039062 304.691406 133.039062 C 304.121094 133.039062 303.6875 132.902344 303.382812 132.621094 C 303.074219 132.347656 302.917969 131.992188 302.921875 131.558594 C 302.917969 131.308594 302.976562 131.074219 303.09375 130.863281 C 303.207031 130.652344 303.359375 130.484375 303.550781 130.363281 C 303.734375 130.238281 303.941406 130.144531 304.179688 130.074219 C 304.347656 130.03125 304.609375 129.984375 304.960938 129.941406 C 305.667969 129.855469 306.1875 129.757812 306.523438 129.640625 C 306.523438 129.523438 306.527344 129.445312 306.53125 129.410156 C 306.527344 129.054688 306.445312 128.804688 306.28125 128.65625 C 306.054688 128.460938 305.71875 128.363281 305.28125 128.359375 C 304.867188 128.363281 304.5625 128.4375 304.367188 128.578125 C 304.167969 128.726562 304.023438 128.980469 303.929688 129.339844 L 303.074219 129.222656 C 303.148438 128.863281 303.277344 128.566406 303.460938 128.335938 C 303.636719 128.113281 303.894531 127.9375 304.234375 127.8125 C 304.570312 127.691406 304.960938 127.632812 305.40625 127.628906 C 305.847656 127.632812 306.207031 127.683594 306.484375 127.785156 C 306.753906 127.890625 306.957031 128.023438 307.089844 128.179688 C 307.21875 128.34375 307.308594 128.542969 307.363281 128.777344 C 307.390625 128.933594 307.40625 129.199219 307.410156 129.585938 L 307.410156 130.753906 C 307.40625 131.574219 307.425781 132.085938 307.464844 132.300781 C 307.5 132.519531 307.574219 132.726562 307.6875 132.921875 L 306.769531 132.921875 C 306.679688 132.742188 306.621094 132.53125 306.597656 132.28125 Z M 306.523438 130.328125 C 306.203125 130.460938 305.726562 130.570312 305.09375 130.65625 C 304.730469 130.710938 304.472656 130.769531 304.324219 130.832031 C 304.171875 130.902344 304.058594 130.996094 303.976562 131.117188 C 303.894531 131.246094 303.851562 131.386719 303.855469 131.535156 C 303.851562 131.773438 303.941406 131.964844 304.121094 132.117188 C 304.296875 132.277344 304.558594 132.355469 304.902344 132.351562 C 305.234375 132.355469 305.535156 132.28125 305.800781 132.128906 C 306.0625 131.984375 306.253906 131.785156 306.382812 131.523438 C 306.472656 131.328125 306.519531 131.035156 306.523438 130.644531 Z M 308.75 132.921875 L 308.75 125.785156 L 309.628906 125.785156 L 309.628906 132.921875 Z M 277.621094 123.890625 "/>
<path fill="none" stroke-width="1" stroke-linecap="butt" stroke-linejoin="miter" stroke="rgb(0%, 0%, 0%)" stroke-opacity="1" stroke-miterlimit="4" d="M 225.676667 -71.999489 C 234.124607 -71.999489 242.944617 -71.999489 251.267229 -71.999489 " transform="matrix(0.997377, 0, 0, 0.997377, 3.989508, 201.74032)"/>
<path fill-rule="nonzero" fill="rgb(0%, 0%, 0%)" fill-opacity="1" stroke-width="1" stroke-linecap="butt" stroke-linejoin="miter" stroke="rgb(0%, 0%, 0%)" stroke-opacity="1" stroke-miterlimit="4" d="M 251.474805 -75.500861 L 261.477605 -71.999489 L 251.474805 -68.502034 Z M 251.474805 -75.500861 " transform="matrix(0.997377, 0, 0, 0.997377, 3.989508, 201.74032)"/>
<path fill="none" stroke-width="1" stroke-linecap="butt" stroke-linejoin="miter" stroke="rgb(0%, 0%, 0%)" stroke-opacity="1" stroke-miterlimit="4" d="M 319.747636 -35.998809 L 261.747845 -35.998809 L 261.747845 0.00187201 L 319.747636 0.00187201 Z M 319.747636 -35.998809 " transform="matrix(0.997377, 0, 0, 0.997377, 3.989508, 201.74032)"/>
<path fill-rule="nonzero" fill="rgb(0%, 0%, 0%)" fill-opacity="1" d="M 283.113281 186.78125 L 283.113281 179.640625 L 286.28125 179.640625 C 286.917969 179.644531 287.402344 179.707031 287.730469 179.832031 C 288.0625 179.960938 288.328125 180.1875 288.527344 180.511719 C 288.722656 180.839844 288.820312 181.195312 288.824219 181.589844 C 288.820312 182.097656 288.65625 182.523438 288.332031 182.867188 C 288 183.21875 287.492188 183.4375 286.8125 183.53125 C 287.058594 183.652344 287.25 183.773438 287.382812 183.890625 C 287.652344 184.140625 287.914062 184.457031 288.167969 184.835938 L 289.40625 186.78125 L 288.21875 186.78125 L 287.277344 185.296875 C 286.996094 184.867188 286.765625 184.539062 286.589844 184.3125 C 286.410156 184.085938 286.25 183.929688 286.109375 183.835938 C 285.964844 183.746094 285.824219 183.683594 285.683594 183.644531 C 285.574219 183.625 285.398438 183.613281 285.15625 183.609375 L 284.0625 183.609375 L 284.0625 186.78125 Z M 284.0625 182.789062 L 286.089844 182.789062 C 286.519531 182.792969 286.859375 182.75 287.105469 182.65625 C 287.347656 182.570312 287.527344 182.429688 287.65625 182.230469 C 287.78125 182.035156 287.847656 181.820312 287.847656 181.589844 C 287.847656 181.253906 287.722656 180.980469 287.480469 180.757812 C 287.234375 180.542969 286.847656 180.433594 286.320312 180.429688 L 284.0625 180.429688 Z M 293.566406 186.140625 C 293.242188 186.421875 292.925781 186.617188 292.628906 186.726562 C 292.324219 186.84375 292.003906 186.898438 291.664062 186.898438 C 291.09375 186.898438 290.65625 186.761719 290.355469 186.480469 C 290.046875 186.207031 289.890625 185.851562 289.894531 185.417969 C 289.890625 185.167969 289.949219 184.933594 290.066406 184.722656 C 290.179688 184.511719 290.332031 184.34375 290.519531 184.21875 C 290.703125 184.09375 290.914062 184 291.152344 183.933594 C 291.320312 183.890625 291.582031 183.84375 291.929688 183.800781 C 292.640625 183.714844 293.160156 183.617188 293.492188 183.5 C 293.492188 183.382812 293.496094 183.304688 293.5 183.269531 C 293.496094 182.914062 293.414062 182.660156 293.253906 182.511719 C 293.027344 182.320312 292.691406 182.222656 292.253906 182.21875 C 291.839844 182.222656 291.535156 182.296875 291.339844 182.4375 C 291.140625 182.582031 290.996094 182.835938 290.902344 183.199219 L 290.046875 183.082031 C 290.121094 182.71875 290.25 182.425781 290.429688 182.195312 C 290.605469 181.972656 290.867188 181.796875 291.207031 181.671875 C 291.542969 181.550781 291.929688 181.492188 292.378906 181.488281 C 292.820312 181.492188 293.179688 181.542969 293.453125 181.644531 C 293.726562 181.75 293.929688 181.882812 294.0625 182.039062 C 294.191406 182.203125 294.28125 182.402344 294.335938 182.632812 C 294.363281 182.789062 294.378906 183.058594 294.382812 183.445312 L 294.382812 184.613281 C 294.378906 185.433594 294.398438 185.945312 294.4375 186.160156 C 294.472656 186.378906 294.546875 186.585938 294.660156 186.78125 L 293.742188 186.78125 C 293.648438 186.601562 293.589844 186.390625 293.566406 186.140625 Z M 293.492188 184.183594 C 293.175781 184.316406 292.699219 184.429688 292.0625 184.515625 C 291.703125 184.570312 291.445312 184.628906 291.296875 184.691406 C 291.144531 184.761719 291.03125 184.855469 290.949219 184.976562 C 290.867188 185.105469 290.824219 185.246094 290.828125 185.394531 C 290.824219 185.628906 290.914062 185.824219 291.09375 185.976562 C 291.269531 186.136719 291.53125 186.214844 291.871094 186.210938 C 292.207031 186.214844 292.507812 186.140625 292.773438 185.988281 C 293.035156 185.84375 293.226562 185.640625 293.351562 185.382812 C 293.441406 185.1875 293.488281 184.894531 293.492188 184.503906 Z M 297.65625 185.996094 L 297.78125 186.773438 C 297.53125 186.828125 297.3125 186.851562 297.117188 186.851562 C 296.796875 186.851562 296.546875 186.800781 296.375 186.699219 C 296.199219 186.597656 296.078125 186.464844 296.007812 186.300781 C 295.9375 186.136719 295.902344 185.792969 295.902344 185.265625 L 295.902344 182.292969 L 295.257812 182.292969 L 295.257812 181.605469 L 295.902344 181.605469 L 295.902344 180.328125 L 296.773438 179.800781 L 296.773438 181.605469 L 297.65625 181.605469 L 297.65625 182.292969 L 296.773438 182.292969 L 296.773438 185.316406 C 296.769531 185.566406 296.785156 185.726562 296.820312 185.796875 C 296.847656 185.867188 296.898438 185.925781 296.96875 185.96875 C 297.035156 186.011719 297.136719 186.03125 297.269531 186.03125 C 297.367188 186.03125 297.496094 186.019531 297.65625 185.996094 Z M 298.515625 180.648438 L 298.515625 179.640625 L 299.390625 179.640625 L 299.390625 180.648438 Z M 298.515625 186.78125 L 298.515625 181.605469 L 299.390625 181.605469 L 299.390625 186.78125 Z M 300.402344 184.191406 C 300.398438 183.238281 300.664062 182.527344 301.199219 182.066406 C 301.640625 181.683594 302.1875 181.492188 302.828125 181.488281 C 303.539062 181.492188 304.117188 181.726562 304.570312 182.191406 C 305.023438 182.65625 305.246094 183.300781 305.246094 184.121094 C 305.246094 184.789062 305.148438 185.3125 304.949219 185.691406 C 304.746094 186.074219 304.453125 186.371094 304.074219 186.582031 C 303.691406 186.792969 303.277344 186.898438 302.828125 186.898438 C 302.105469 186.898438 301.515625 186.667969 301.070312 186.199219 C 300.621094 185.738281 300.398438 185.070312 300.402344 184.191406 Z M 301.300781 184.191406 C 301.296875 184.859375 301.441406 185.355469 301.734375 185.679688 C 302.023438 186.011719 302.386719 186.179688 302.828125 186.175781 C 303.261719 186.179688 303.621094 186.011719 303.910156 185.679688 C 304.199219 185.351562 304.347656 184.847656 304.347656 184.164062 C 304.347656 183.527344 304.199219 183.039062 303.910156 182.710938 C 303.617188 182.386719 303.257812 182.222656 302.828125 182.21875 C 302.386719 182.222656 302.023438 182.386719 301.734375 182.707031 C 301.441406 183.039062 301.296875 183.535156 301.300781 184.191406 Z M 282.332031 177.75 "/>
<path fill="none" stroke-width="1" stroke-linecap="butt" stroke-linejoin="miter" stroke="rgb(0%, 0%, 0%)" stroke-opacity="1" stroke-miterlimit="4" d="M 218.93633 -53.869904 C 229.659771 -48.5121 241.432839 -42.633399 252.285525 -37.212931 " transform="matrix(0.997377, 0, 0, 0.997377, 3.989508, 201.74032)"/>
<path fill-rule="nonzero" fill="rgb(0%, 0%, 0%)" fill-opacity="1" stroke-width="1" stroke-linecap="butt" stroke-linejoin="miter" stroke="rgb(0%, 0%, 0%)" stroke-opacity="1" stroke-miterlimit="4" d="M 254.153706 -40.189488 L 261.536353 -32.591434 L 251.028321 -33.926968 Z M 254.153706 -40.189488 " transform="matrix(0.997377, 0, 0, 0.997377, 3.989508, 201.74032)"/>
</svg>
